REM MD5 534dbc28ec6299ddefa871fc8e616142
FILE "Chronicles of the Sword (Italy) (Disc 2).bin" BINARY
  TRACK 01 MODE2/2352
    INDEX 01 00:00:00
  TRACK 02 AUDIO
    INDEX 00 22:08:00
    INDEX 01 22:10:00
  TRACK 03 AUDIO
    INDEX 00 22:29:00
    INDEX 01 22:31:00
  TRACK 04 AUDIO
    INDEX 00 23:49:00
    INDEX 01 23:51:00
  TRACK 05 AUDIO
    INDEX 00 24:50:00
    INDEX 01 24:52:00
  TRACK 06 AUDIO
    INDEX 00 27:42:00
    INDEX 01 27:44:00
  TRACK 07 AUDIO
    INDEX 00 27:56:00
    INDEX 01 27:58:00
  TRACK 08 AUDIO
    INDEX 00 28:03:00
    INDEX 01 28:05:00
  TRACK 09 AUDIO
    INDEX 00 28:11:00
    INDEX 01 28:13:00
  TRACK 10 AUDIO
    INDEX 00 28:27:00
    INDEX 01 28:29:00
  TRACK 11 AUDIO
    INDEX 00 29:30:00
    INDEX 01 29:32:00
  TRACK 12 AUDIO
    INDEX 00 29:42:00
    INDEX 01 29:44:00
  TRACK 13 AUDIO
    INDEX 00 29:51:00
    INDEX 01 29:53:00
  TRACK 14 AUDIO
    INDEX 00 30:02:00
    INDEX 01 30:04:00
  TRACK 15 AUDIO
    INDEX 00 30:20:00
    INDEX 01 30:22:00
  TRACK 16 AUDIO
    INDEX 00 30:28:00
    INDEX 01 30:30:00
  TRACK 17 AUDIO
    INDEX 00 31:08:00
    INDEX 01 31:10:00
  TRACK 18 AUDIO
    INDEX 00 31:21:00
    INDEX 01 31:23:00
  TRACK 19 AUDIO
    INDEX 00 31:37:00
    INDEX 01 31:39:00
  TRACK 20 AUDIO
    INDEX 00 37:28:00
    INDEX 01 37:30:00
  TRACK 21 AUDIO
    INDEX 00 37:38:00
    INDEX 01 37:40:00
  TRACK 22 AUDIO
    INDEX 00 37:48:00
    INDEX 01 37:50:00
  TRACK 23 AUDIO
    INDEX 00 37:59:00
    INDEX 01 38:01:00
  TRACK 24 AUDIO
    INDEX 00 38:09:00
    INDEX 01 38:11:00
  TRACK 25 AUDIO
    INDEX 00 38:21:00
    INDEX 01 38:23:00
  TRACK 26 AUDIO
    INDEX 00 39:28:00
    INDEX 01 39:30:00
  TRACK 27 AUDIO
    INDEX 00 39:44:00
    INDEX 01 39:46:00
  TRACK 28 AUDIO
    INDEX 00 41:36:00
    INDEX 01 41:38:00
  TRACK 29 AUDIO
    INDEX 00 44:01:00
    INDEX 01 44:03:00
  TRACK 30 AUDIO
    INDEX 00 44:26:00
    INDEX 01 44:28:00
  TRACK 31 AUDIO
    INDEX 00 44:33:00
    INDEX 01 44:35:00
  TRACK 32 AUDIO
    INDEX 00 44:55:00
    INDEX 01 44:57:00
  TRACK 33 AUDIO
    INDEX 00 45:03:00
    INDEX 01 45:05:00
  TRACK 34 AUDIO
    INDEX 00 45:34:00
    INDEX 01 45:36:00
  TRACK 35 AUDIO
    INDEX 00 45:41:00
    INDEX 01 45:43:00
  TRACK 36 AUDIO
    INDEX 00 46:01:00
    INDEX 01 46:03:00
  TRACK 37 AUDIO
    INDEX 00 46:12:00
    INDEX 01 46:14:00
  TRACK 38 AUDIO
    INDEX 00 46:21:00
    INDEX 01 46:23:00
  TRACK 39 AUDIO
    INDEX 00 46:28:00
    INDEX 01 46:30:00
  TRACK 40 AUDIO
    INDEX 00 46:35:00
    INDEX 01 46:37:00
  TRACK 41 AUDIO
    INDEX 00 48:30:00
    INDEX 01 48:32:00
  TRACK 42 AUDIO
    INDEX 00 48:47:00
    INDEX 01 48:49:00
  TRACK 43 AUDIO
    INDEX 00 49:24:00
    INDEX 01 49:26:00
  TRACK 44 AUDIO
    INDEX 00 49:48:00
    INDEX 01 49:50:00
  TRACK 45 AUDIO
    INDEX 00 50:05:00
    INDEX 01 50:07:00
  TRACK 46 AUDIO
    INDEX 00 50:14:00
    INDEX 01 50:16:00
  TRACK 47 AUDIO
    INDEX 00 51:21:00
    INDEX 01 51:23:00
  TRACK 48 AUDIO
    INDEX 00 51:29:00
    INDEX 01 51:31:00
REM LEADOUT 52:49:00
